<svg width="1269" height="715" viewBox="0 0 1269 715" fill="none" xmlns="http://www.w3.org/2000/svg">
<path d="M1 90.3709V19C1 9.05888 9.05887 1 19 1H315.886C317.125 1 318.362 1.12804 319.575 1.38209L474.3 33.7807C475.513 34.0347 476.75 34.1628 477.989 34.1628H634.5H791.011C792.25 34.1628 793.487 34.0347 794.7 33.7807L949.425 1.38209C950.638 1.12804 951.875 1 953.114 1H1109.62H1250C1259.94 1 1268 9.05887 1268 19V51.1657V101.331V201.663V280.073V358.484V537.225V613.591C1268 621.354 1263.02 628.243 1255.65 630.68L1147.33 666.504L1010.35 713.022C1008.44 713.669 1006.44 713.992 1004.43 713.977L877.205 713.016L746.939 712.033L234.798 713.987C232.529 713.996 230.279 713.575 228.166 712.748L12.4363 628.265C5.53847 625.563 1 618.912 1 611.504V90.3709Z" fill="#1F1F1F" stroke="#F64040"/>
</svg>
