<svg width="495" height="737" viewBox="0 0 495 737" fill="none" xmlns="http://www.w3.org/2000/svg">
<g filter="url(#filter0_d_391_58)">
<path d="M163.259 1L5 35.1578V728H222.99C305.012 700.13 470.998 643.88 478.757 641.841C486.517 639.802 489.478 630.115 489.989 625.527C489.819 428.737 489.58 31.895 489.989 18.8436C490.397 5.79229 479.608 1.50982 474.163 1H163.259Z" fill="#D9D9D9"/>
<path d="M163.259 1L5 35.1578V728H222.99C305.012 700.13 470.998 643.88 478.757 641.841C486.517 639.802 489.478 630.115 489.989 625.527C489.819 428.737 489.58 31.895 489.989 18.8436C490.397 5.79229 479.608 1.50982 474.163 1H163.259Z" stroke="black"/>
</g>
<defs>
<filter id="filter0_d_391_58" x="0.5" y="0.5" width="494" height="736" filterUnits="userSpaceOnUse" color-interpolation-filters="sRGB">
<feFlood flood-opacity="0" result="BackgroundImageFix"/>
<feColorMatrix in="SourceAlpha" type="matrix" values="0 0 0 0 0 0 0 0 0 0 0 0 0 0 0 0 0 0 127 0" result="hardAlpha"/>
<feOffset dy="4"/>
<feGaussianBlur stdDeviation="2"/>
<feComposite in2="hardAlpha" operator="out"/>
<feColorMatrix type="matrix" values="0 0 0 0 0 0 0 0 0 0 0 0 0 0 0 0 0 0 0.25 0"/>
<feBlend mode="normal" in2="BackgroundImageFix" result="effect1_dropShadow_391_58"/>
<feBlend mode="normal" in="SourceGraphic" in2="effect1_dropShadow_391_58" result="shape"/>
</filter>
</defs>
</svg>
